<svg xmlns="http://www.w3.org/2000/svg" viewBox="0 0 512 512"><title>Asset 2</title><g id="Layer_2" data-name="Layer 2"><g id="Layer_1-2" data-name="Layer 1"><circle cx="256" cy="256" r="164.38" style="fill:#ef7f8d"/><path d="M266,362.71a23.53,23.53,0,1,0,23.53,23.53A23.56,23.56,0,0,0,266,362.71Zm0,32.06a8.53,8.53,0,1,1,8.53-8.53A8.53,8.53,0,0,1,266,394.77Z"/><path d="M387,263.27a36.38,36.38,0,1,0-36.38,36.37A36.42,36.42,0,0,0,387,263.27Zm-49.57,0a13.19,13.19,0,1,1,13.19,13.19A13.2,13.2,0,0,1,337.43,263.27Z"/><path d="M119.25,256a23.53,23.53,0,1,0,23.53-23.53A23.56,23.56,0,0,0,119.25,256Zm32.06,0a8.53,8.53,0,1,1-8.53-8.53A8.54,8.54,0,0,1,151.31,256Z"/><path d="M140,154a41,41,0,1,0,29-12A40.76,40.76,0,0,0,140,154Zm43.88,29a14.89,14.89,0,1,1-4.36-10.52A14.77,14.77,0,0,1,183.85,183Z"/><path d="M331,364.56a23.54,23.54,0,1,0-16.64-6.9A23.35,23.35,0,0,0,331,364.56ZM325,335a8.52,8.52,0,1,1-2.5,6,8.47,8.47,0,0,1,2.5-6Z"/><path d="M352.39,179.36a14,14,0,0,1-19.75-19.75,12.28,12.28,0,0,0-17.36-17.37,38.52,38.52,0,0,0,54.48,54.48,12.28,12.28,0,0,0-17.37-17.36Z"/><path d="M177.47,369.32a43.44,43.44,0,0,0,33.42,1.94,13.94,13.94,0,1,0-9.15-26.33A15.85,15.85,0,0,1,191.33,315a13.94,13.94,0,0,0-9.15-26.34,43.75,43.75,0,0,0-4.71,80.68Z"/><path d="M256,109.26a23.53,23.53,0,1,0,23.53,23.53A23.56,23.56,0,0,0,256,109.26Zm0,32.07a8.54,8.54,0,1,1,8.53-8.54A8.54,8.54,0,0,1,256,141.33Z"/><path d="M256,255.19a38.91,38.91,0,1,0,38.9,38.91A39,39,0,0,0,256,255.19Zm0,53a14.11,14.11,0,1,1,14.11-14.1A14.12,14.12,0,0,1,256,308.2Z"/><path d="M284.59,216.26a25.06,25.06,0,1,0-25.06,25.05A25.09,25.09,0,0,0,284.59,216.26Zm-25.06,9.08a9.09,9.09,0,1,1,9.09-9.08A9.09,9.09,0,0,1,259.53,225.34Z"/><path d="M466.17,263.5a23.53,23.53,0,1,0,0-15H431.66a176.1,176.1,0,0,0-1.89-19.42l16.38-3.26a7.5,7.5,0,1,0-2.92-14.71l-16.38,3.26a177.89,177.89,0,0,0-5.66-18.67l31.86-13.2a23.59,23.59,0,1,0-5.74-13.86l-31.85,13.19a177.46,177.46,0,0,0-9.2-17.21l13.87-9.27a7.5,7.5,0,1,0-8.33-12.47l-13.89,9.28a172.73,172.73,0,0,0-12.38-15.08l24.38-24.38a23.57,23.57,0,1,0-10.59-10.63l-24.39,24.39a177.33,177.33,0,0,0-15.1-12.36l9.29-13.9a7.5,7.5,0,0,0-12.47-8.33s-5.36,8-9.29,13.84q-3.44-2.1-7-4l-.28-.16-1-.55-.27-.13h0c-.94-.51-1.88-1-2.83-1.51l-.27-.13v0c-1.83-.95-3.69-1.85-5.56-2.74L343.36,64.7c.52,0,1.05.06,1.57.06a23.53,23.53,0,1,0-9-45.27A23.51,23.51,0,0,0,329.5,59L316.31,90.79a175.88,175.88,0,0,0-18.67-5.67l3.25-16.35a7.5,7.5,0,1,0-14.71-2.92l-3.26,16.36a176.56,176.56,0,0,0-19.42-1.88V45.83a23.53,23.53,0,1,0-15,0v34.5a177.35,177.35,0,0,0-19.42,1.89l-3.26-16.37a7.5,7.5,0,1,0-14.71,2.92l3.26,16.38a172.13,172.13,0,0,0-18.67,5.67L182.5,59a23.51,23.51,0,1,0-15.43,5.81c.52,0,1.05,0,1.57-.06l13.21,31.88a175.83,175.83,0,0,0-17.19,9.22l-9.31-13.93a7.5,7.5,0,0,0-12.47,8.33l9.32,14a178.41,178.41,0,0,0-15.06,12.38l-24.46-24.46a23.45,23.45,0,1,0-10.59,10.62l24.45,24.44a177,177,0,0,0-12.38,15.07l-14-9.33a7.5,7.5,0,1,0-8.33,12.47l13.93,9.31a178.16,178.16,0,0,0-9.22,17.19L64.69,168.64A23.56,23.56,0,1,0,59,182.5l31.87,13.2a172.81,172.81,0,0,0-5.67,18.67l-16.38-3.26a7.5,7.5,0,1,0-2.92,14.72l16.37,3.25a177.35,177.35,0,0,0-1.89,19.42H45.83a23.53,23.53,0,1,0,0,15h34.5a177.35,177.35,0,0,0,1.89,19.42l-16.37,3.26A7.5,7.5,0,0,0,67.3,301a7.32,7.32,0,0,0,1.47-.14l16.38-3.26a172.81,172.81,0,0,0,5.67,18.67L59,329.5a23.52,23.52,0,1,0-26.73,37.2,23.5,23.5,0,0,0,32.47-23.34l31.89-13.21a174.84,174.84,0,0,0,9.22,17.19l-13.93,9.31a7.5,7.5,0,1,0,8.33,12.47l14-9.33a178.78,178.78,0,0,0,12.37,15.07L102.09,399.3a23.57,23.57,0,1,0,10.59,10.62l24.46-24.46a178.41,178.41,0,0,0,15.06,12.38l-9.32,14a7.5,7.5,0,1,0,12.47,8.33l9.31-13.93a175.91,175.91,0,0,0,17.19,9.21L168.64,447.3a23.59,23.59,0,1,0,13.86,5.75l13.2-31.87a172.81,172.81,0,0,0,18.67,5.67l-3.26,16.38a7.5,7.5,0,0,0,5.89,8.82,8.3,8.3,0,0,0,1.47.14,7.5,7.5,0,0,0,7.35-6l3.26-16.37a177.35,177.35,0,0,0,19.42,1.89v34.5a23.53,23.53,0,1,0,15,0v-34.5a177.35,177.35,0,0,0,19.42-1.89l3.26,16.37a7.5,7.5,0,1,0,14.71-2.92l-3.26-16.38a172.13,172.13,0,0,0,18.67-5.67l13.2,31.87a23.52,23.52,0,1,0,13.86-5.75l-13.21-31.89a175.91,175.91,0,0,0,17.19-9.21l9.31,13.93a7.5,7.5,0,1,0,12.47-8.33l-9.32-14a178.41,178.41,0,0,0,15.06-12.38l24.46,24.46a23.45,23.45,0,1,0,10.59-10.62l-24.45-24.44a177,177,0,0,0,12.38-15.07l14,9.33a7.5,7.5,0,1,0,8.34-12.47l-13.93-9.31a175.91,175.91,0,0,0,9.21-17.19l31.89,13.21A23.53,23.53,0,0,0,492.51,354,23.53,23.53,0,0,0,453,329.5l-31.86-13.2a172.77,172.77,0,0,0,5.66-18.67l16.38,3.26a7.5,7.5,0,1,0,2.93-14.71l-16.37-3.26a177.35,177.35,0,0,0,1.89-19.42Zm22.3-16h0a8.53,8.53,0,1,1-8.53,8.53A8.54,8.54,0,0,1,488.47,247.47Zm-25.58-83.7a8.53,8.53,0,1,1,0,6.53A8.46,8.46,0,0,1,462.89,163.77ZM414.35,85.59a8.53,8.53,0,1,1,0,12.06A8.47,8.47,0,0,1,414.35,85.59ZM337.08,38A8.54,8.54,0,0,1,345,32.69a8.67,8.67,0,0,1,3.27.65,8.53,8.53,0,0,1-6.53,15.77h0A8.54,8.54,0,0,1,337.08,38ZM174.92,44.49a8.44,8.44,0,0,1-4.62,4.62h0a8.53,8.53,0,0,1-6.53-15.77,8.53,8.53,0,0,1,6.53,0,8.53,8.53,0,0,1,4.62,11.15ZM97.65,97.65a8.53,8.53,0,1,1,0-12.06A8.47,8.47,0,0,1,97.65,97.65ZM49.11,170.3a8.52,8.52,0,1,1,0-6.53A8.44,8.44,0,0,1,49.11,170.3ZM23.53,264.53A8.53,8.53,0,1,1,32.06,256,8.54,8.54,0,0,1,23.53,264.53Zm25.58,83.7a8.53,8.53,0,1,1,0-6.53A8.51,8.51,0,0,1,49.11,348.23Zm48.54,78.18a8.53,8.53,0,1,1,0-12.06A8.53,8.53,0,0,1,97.65,426.41ZM174.92,474a8.53,8.53,0,1,1-4.62-11.15h0A8.54,8.54,0,0,1,174.92,474Zm162.16-6.53a8.46,8.46,0,0,1,4.61-4.62h0a8.45,8.45,0,0,1,3.25-.65,8.54,8.54,0,1,1-7.87,5.27Zm77.27-53.16a8.52,8.52,0,0,1,12.06,0h0a8.53,8.53,0,1,1-12.06,0Zm48.54-72.65a8.52,8.52,0,1,1,0,6.53A8.44,8.44,0,0,1,462.89,341.7ZM247.47,23.53A8.53,8.53,0,1,1,256,32.06,8.54,8.54,0,0,1,247.47,23.53Zm17.06,464.94a8.53,8.53,0,1,1-8.53-8.53A8.54,8.54,0,0,1,264.53,488.47ZM256,416.84c-88.69,0-160.84-72.15-160.84-160.84S167.31,95.16,256,95.16a160,160,0,0,1,61.56,12.2,7.66,7.66,0,0,0,1.09.35q2.73,1.19,5.42,2.44c1.16.55,2.3,1.12,3.44,1.69l1.33.67c.83.42,1.64.86,2.46,1.3l2.25,1.21q3.92,2.17,7.69,4.55c1.13.71,2.26,1.43,3.38,2.18h0l.66.44,0,0A160.7,160.7,0,0,1,416.84,256C416.84,344.68,344.69,416.84,256,416.84Z"/><circle cx="202.14" cy="248.78" r="12.48"/></g></g></svg>